<svg width="45" height="45" viewBox="0 0 45 45" fill="none" xmlns="http://www.w3.org/2000/svg">
<path fill-rule="evenodd" clip-rule="evenodd" d="M22.5 45C34.9257 45 45 34.9257 45 22.5C45 10.0743 34.9283 0 22.5 0C10.0743 0 0 10.0743 0 22.5C0 34.9257 10.0743 45 22.5 45ZM37.1888 26.407V24.9576C37.1888 24.8235 37.0594 24.7264 36.9322 24.7634L30.0874 26.7422C30.0504 26.7514 30.018 26.7722 29.9926 26.8C29.2595 27.6098 28.6364 28.1532 28.4714 28.2972L28.4599 28.3071C28.0346 28.6678 27.5075 28.8643 26.9527 28.8643H24.4746V26.3376H26.4442C26.495 26.3376 26.5436 26.3191 26.5806 26.2868L26.8348 26.0533C26.9435 25.9539 27.073 25.8337 27.2278 25.6788L27.2679 25.6388C27.3492 25.5577 27.4362 25.4711 27.5214 25.376C27.6231 25.2766 27.7225 25.1656 27.815 25.057C27.9698 24.8905 28.1178 24.7171 28.2727 24.5345C28.3837 24.4143 28.4854 24.2779 28.5848 24.1415C28.6957 24.0121 28.8044 23.8665 28.9061 23.7278C28.9439 23.6721 28.9842 23.6159 29.0254 23.5584L29.0254 23.5584C29.0646 23.5037 29.1047 23.4478 29.1442 23.3903C29.2181 23.2793 29.2921 23.1614 29.3545 23.0504C29.5487 22.7499 29.7129 22.4286 29.8516 22.1073C29.9152 21.9696 29.9661 21.8247 30.0156 21.6839L30.0342 21.6311C30.0897 21.4669 30.1359 21.3121 30.1706 21.1479C30.2538 20.7619 30.2723 20.3781 30.2353 19.9944C30.2261 19.8742 30.2168 19.7563 30.1891 19.6454V19.6269C30.1798 19.5483 30.1613 19.4604 30.1359 19.3795C30.0527 19.005 29.9232 18.6305 29.7591 18.263C29.7036 18.1266 29.6389 17.9879 29.5765 17.8608C29.4285 17.5857 29.2736 17.3105 29.098 17.0447C29.0627 16.9886 29.0238 16.9317 28.9849 16.875L28.9849 16.8749L28.9848 16.8748C28.9549 16.8311 28.925 16.7874 28.8969 16.7442C28.7856 16.5726 28.6605 16.4072 28.5392 16.2467L28.5391 16.2466C28.5117 16.2104 28.4844 16.1743 28.4576 16.1386C28.386 16.0445 28.3075 15.9504 28.2286 15.8557L28.2284 15.8555C28.1852 15.8037 28.1418 15.7516 28.0993 15.6993C27.9791 15.5537 27.8612 15.415 27.741 15.2786C27.311 14.7931 26.8603 14.3539 26.458 13.9795C26.384 13.9055 26.3031 13.8315 26.2199 13.7599C25.9079 13.4755 25.6235 13.2281 25.3854 13.0363C25.3139 12.9813 25.2497 12.927 25.19 12.8766L25.1899 12.8765C25.1493 12.8422 25.1108 12.8096 25.0733 12.7797C25.0012 12.7259 24.9385 12.6782 24.886 12.6382C24.8526 12.6128 24.8234 12.5905 24.7983 12.5716C24.7798 12.5578 24.759 12.5485 24.7382 12.5416L24.4746 12.4676V10.2854C24.4746 9.92941 24.3313 9.61041 24.1025 9.3769C23.8736 9.14344 23.5546 9.00012 23.2032 9.00012C22.5005 9.00012 21.9318 9.57571 21.9318 10.2854V11.7556L21.8 11.7187L21.4417 11.6169L21.1158 11.5268C21.1148 11.5268 21.1139 11.5264 21.1127 11.5259C21.1111 11.5252 21.1092 11.5244 21.1065 11.5244H21.0996L18.6261 10.8541C18.5175 10.824 18.425 10.9419 18.4805 11.0413L18.8758 11.7718C18.8982 11.8279 18.9266 11.8841 18.9558 11.9417L18.9559 11.9418L18.9559 11.9419L18.956 11.942C18.9748 11.9793 18.994 12.0172 19.0121 12.0562C19.0769 12.1856 19.1416 12.322 19.204 12.4584C19.2595 12.5786 19.315 12.6965 19.3797 12.8259C19.4069 12.8868 19.4347 12.9484 19.4628 13.0109L19.4629 13.011L19.4629 13.0111C19.5662 13.2405 19.6748 13.4816 19.7819 13.7414L19.782 13.7415C19.8744 13.961 19.9669 14.1806 20.0478 14.4094C20.2697 14.985 20.48 15.5999 20.6627 16.231C20.7081 16.3722 20.7445 16.5089 20.7813 16.6474L20.7813 16.6474L20.7813 16.6475C20.7969 16.7062 20.8126 16.7652 20.8291 16.8251L20.8545 16.936C20.9285 17.2297 20.9933 17.5209 21.0395 17.8145C21.0765 18.0156 21.1111 18.2075 21.1296 18.4017C21.1574 18.6213 21.1851 18.8409 21.1944 19.0605C21.2129 19.2616 21.2221 19.472 21.2221 19.6731C21.2221 20.1863 21.1759 20.6809 21.0672 21.1479L21.0467 21.224L21.0467 21.2241L21.0467 21.2241C21.0163 21.3377 20.9848 21.4555 20.947 21.5687C20.9129 21.6898 20.8687 21.811 20.8227 21.9368L20.8227 21.937L20.8226 21.9371C20.8064 21.9816 20.7899 22.0267 20.7736 22.0726L20.7645 22.0972C20.7305 22.1887 20.6959 22.2819 20.6534 22.3731C20.4246 22.9233 20.1403 23.4712 19.8467 23.9844C19.4167 24.7449 18.9844 25.413 18.6816 25.8429C18.6631 25.8707 18.6451 25.897 18.6277 25.9224L18.6276 25.9226L18.6274 25.9228C18.6058 25.9544 18.5852 25.9846 18.566 26.014C18.4712 26.148 18.5683 26.3376 18.7324 26.3376H21.9318V28.8643H18.6954C17.8263 28.8643 17.0218 28.3719 16.6334 27.5836C16.4323 27.1883 16.3537 26.7537 16.4 26.3284C16.4115 26.2012 16.3167 26.081 16.1873 26.081H9.6499C9.53893 26.081 9.44879 26.1712 9.44879 26.2821V26.4162C9.44879 30.5865 12.8169 33.9661 16.9732 33.9661H28.7003C30.8986 33.9661 32.1468 31.9629 33.3737 29.994C33.7157 29.4452 34.056 28.899 34.4148 28.3996C35.0597 27.5027 36.6109 26.7907 37.0639 26.5965C37.1379 26.5642 37.1888 26.4902 37.1888 26.407ZM11.1966 23.1033L11.0995 23.2559C11.014 23.3876 11.1088 23.5633 11.2706 23.5633H17.2901C17.3572 23.5633 17.4196 23.531 17.4566 23.4755C17.5352 23.3553 17.6092 23.2304 17.6762 23.1033C18.1963 22.2295 18.6587 21.284 18.8274 20.5859C19.2227 18.8891 18.379 16.1636 17.4011 13.9722C17.3364 13.8266 17.1353 13.8127 17.0497 13.9468L11.1966 23.1033Z" fill="white"/>
</svg>
