<svg width="48" height="39" viewBox="0 0 48 39" fill="none" xmlns="http://www.w3.org/2000/svg">
<path d="M47.4556 4.7675C45.7058 5.54184 43.8353 6.06476 41.8643 6.30612C43.8755 5.09936 45.4242 3.18867 46.1482 0.915947C44.2677 2.03219 42.1861 2.84675 39.9636 3.27917C38.1837 1.37854 35.6495 0.191895 32.8538 0.191895C27.4737 0.191895 23.1194 4.55632 23.1194 9.93643C23.1194 10.7007 23.1998 11.4449 23.3708 12.1589C15.2755 11.7566 8.0953 7.87489 3.29846 1.97186C2.46379 3.4099 1.98109 5.0893 1.98109 6.86927C1.98109 10.2482 3.70071 13.2349 6.31534 14.9847C4.71639 14.9445 3.20795 14.502 1.90064 13.7679C1.90064 13.8081 1.90064 13.8483 1.90064 13.8886C1.90064 18.615 5.25943 22.547 9.71436 23.442C8.8998 23.6633 8.03496 23.7839 7.15001 23.7839C6.52652 23.7839 5.91309 23.7236 5.31977 23.6029C6.55669 27.4746 10.1568 30.2904 14.4207 30.3708C11.0921 32.9854 6.88855 34.5442 2.323 34.5442C1.53861 34.5442 0.764277 34.4939 0 34.4034C4.30409 37.199 9.42273 38.808 14.9135 38.808C32.8337 38.808 42.6285 23.9549 42.6285 11.0728C42.6285 10.6504 42.6185 10.2281 42.5984 9.81576C44.499 8.43805 46.1482 6.71842 47.4556 4.7675Z" fill="white"/>
</svg>
